<?xml version="1.0" encoding="UTF-8" standalone="no"?>
<!DOCTYPE svg PUBLIC "-//W3C//DTD SVG 20010904//EN" "http://www.w3.org/TR/2001/REC-SVG-20010904/DTD/svg10.dtd">
<svg version="1.0" xmlns="http://www.w3.org/2000/svg" width="108.000000pt" height="87.000000pt" viewBox="0 0 108.000000 87.000000" preserveAspectRatio="xMidYMid meet">
<metadata>
Created by potrace 1.10, written by Peter Selinger 2001-2011
</metadata>
<g transform="translate(0.000000,87.000000) scale(0.100000,-0.100000)" fill="#06601f" stroke="none">
<path d="M200 630 c-80 -3 -139 -7 -132 -8 17 -3 15 -29 -3 -35 -17 -7 -29 8 -21 28 3 8 1 15 -4 15 -6 0 -10 -79 -10 -205 l0 -205 505 0 505 0 0 60 0 60 -55 0 c-56 0 -69 10 -37 30 12 8 13 13 5 16 -15 7 -18 74 -3 74 18 0 10 19 -11 25 -21 7 -21 26 1 33 8 3 10 0 5 -8 -6 -10 1 -12 31 -7 21 4 45 7 52 7 8 0 12 19 12 60 0 45 -4 60 -14 60 -9 0 -12 -7 -9 -20 4 -15 0 -20 -16 -20 -14 0 -21 6 -21 20 0 12 -7 20 -17 21 -67 4 -645 3 -763 -1z m-65 -19 c3 -5 1 -13 -5 -16 -15 -9 -43 3 -35 15 8 13 32 13 40 1z m55 -6 c0 -8 -6 -15 -14 -15 -17 0 -28 14 -19 24 12 12 33 6 33 -9z m60 0 c0 -8 -6 -15 -14 -15 -17 0 -28 14 -19 24 12 12 33 6 33 -9z m58 3 c-3 -7 -11 -13 -18 -13 -7 0 -15 6 -17 13 -3 7 4 12 17 12 13 0 20 -5 18 -12z m53 -3 c-1 -15 -24 -12 -29 3 -3 9 2 13 12 10 10 -1 17 -7 17 -13z m60 0 c-1 -15 -24 -12 -29 3 -3 9 2 13 12 10 10 -1 17 -7 17 -13z m62 0 c1 -5 -6 -11 -15 -13 -11 -2 -18 3 -18 13 0 17 30 18 33 0z m60 0 c1 -5 -6 -11 -15 -13 -11 -2 -18 3 -18 13 0 17 30 18 33 0z m55 4 c-2 -6 -8 -10 -13 -10 -5 0 -11 4 -13 10 -2 6 4 11 13 11 9 0 15 -5 13 -11z m62 2 c0 -14 -18 -23 -30 -16 -6 4 -8 11 -5 16 8 12 35 12 35 0z m60 -7 c0 -11 -5 -14 -16 -10 -9 3 -18 6 -20 6 -3 0 -2 5 1 10 10 16 35 12 35 -6z m58 4 c-3 -7 -11 -13 -18 -13 -7 0 -15 6 -17 13 -3 7 4 12 17 12 13 0 20 -5 18 -12z m60 0 c-3 -7 -11 -13 -18 -13 -7 0 -15 6 -17 13 -3 7 4 12 17 12 13 0 20 -5 18 -12z m60 0 c-3 -7 -11 -13 -18 -13 -7 0 -15 6 -17 13 -3 7 4 12 17 12 13 0 20 -5 18 -12z m60 0 c-3 -7 -11 -13 -18 -13 -7 0 -15 6 -17 13 -3 7 4 12 17 12 13 0 20 -5 18 -12z m-851 -35 c-4 -3 -10 -3 -14 0 -3 4 0 7 7 7 7 0 10 -3 7 -7z m40 -10 c-4 -3 -7 0 -7 7 0 7 3 10 7 7 3 -4 3 -10 0 -14z m53 13 c0 -9 -30 -14 -35 -6 -4 6 3 10 14 10 12 0 21 -2 21 -4z m60 0 c0 -3 -4 -8 -10 -11 -5 -3 -10 -1 -10 4 0 6 5 11 10 11 6 0 10 -2 10 -4z m17 -13 c-4 -3 -7 0 -7 7 0 7 3 10 7 7 3 -4 3 -10 0 -14z m30 10 c-4 -3 -10 -3 -14 0 -3 4 0 7 7 7 7 0 10 -3 7 -7z m63 -3 c0 -5 -5 -10 -11 -10 -5 0 -7 5 -4 10 3 6 8 10 11 10 2 0 4 -4 4 -10z m50 0 c0 -5 -7 -7 -15 -4 -8 4 -15 8 -15 10 0 2 7 4 15 4 8 0 15 -4 15 -10z m60 0 c0 -5 -5 -10 -11 -10 -5 0 -7 5 -4 10 3 6 8 10 11 10 2 0 4 -4 4 -10z m57 -7 c-4 -3 -7 0 -7 7 0 7 3 10 7 7 3 -4 3 -10 0 -14z m60 0 c-4 -3 -7 0 -7 7 0 7 3 10 7 7 3 -4 3 -10 0 -14z m63 7 c0 -5 -7 -7 -15 -4 -8 4 -15 8 -15 10 0 2 7 4 15 4 8 0 15 -4 15 -10z m120 1 c0 -5 -9 -7 -20 -4 -11 3 -20 7 -20 9 0 2 9 4 20 4 11 0 20 -4 20 -9z m47 -8 c-4 -3 -7 0 -7 7 0 7 3 10 7 7 3 -4 3 -10 0 -14z m70 11 c-3 -3 -12 -4 -19 -1 -8 3 -5 6 6 6 11 1 17 -2 13 -5z m30 -11 c-4 -3 -7 0 -7 7 0 7 3 10 7 7 3 -4 3 -10 0 -14z m-857 -19 c0 -14 -12 -19 -23 -8 -9 9 4 35 14 28 5 -3 9 -12 9 -20z m395 -4 c3 -5 4 -10 1 -10 -3 0 -8 5 -11 10 -3 6 -4 10 -1 10 3 0 8 -4 11 -10z m45 6 c0 -3 -5 -8 -12 -12 -7 -4 -8 -3 -4 4 7 12 16 16 16 8z m280 -5 c0 -6 -4 -12 -9 -15 -13 -8 -42 4 -35 15 7 12 44 12 44 0z m-650 -5 c0 -2 -7 -6 -15 -10 -8 -3 -15 -1 -15 4 0 6 7 10 15 10 8 0 15 -2 15 -4z m306 -8 c5 -7 3 -8 -6 -3 -10 6 -12 4 -7 -8 9 -23 -8 -30 -24 -10 -8 9 -9 14 -3 10 7 -4 14 0 18 8 7 18 12 19 22 3z m120 -32 c13 -10 14 -15 4 -21 -9 -6 -11 -4 -6 4 6 8 2 11 -10 9 -11 -2 -18 2 -16 10 1 6 -2 12 -6 12 -5 0 -9 7 -9 16 0 15 2 15 13 0 7 -10 20 -23 30 -30z m151 37 c-4 -3 -10 -3 -14 0 -3 4 0 7 7 7 7 0 10 -3 7 -7z m-457 -23 c0 -5 -2 -10 -4 -10 -3 0 -8 5 -11 10 -3 6 -1 10 4 10 6 0 11 -4 11 -10z m-190 -20 c0 -19 -11 -26 -23 -14 -8 8 3 34 14 34 5 0 9 -9 9 -20z m567 3 c-4 -3 -7 0 -7 7 0 7 3 10 7 7 3 -4 3 -10 0 -14z m30 0 c-4 -3 -7 0 -7 7 0 7 3 10 7 7 3 -4 3 -10 0 -14z m30 -15 c-3 -7 -5 -2 -5 12 0 14 2 19 5 13 2 -7 2 -19 0 -25z m30 0 c-3 -7 -5 -2 -5 12 0 14 2 19 5 13 2 -7 2 -19 0 -25z m43 28 c0 -3 -4 -8 -10 -11 -5 -3 -10 -1 -10 4 0 6 5 11 10 11 6 0 10 -2 10 -4z m17 -13 c-4 -3 -7 0 -7 7 0 7 3 10 7 7 3 -4 3 -10 0 -14z m-610 0 c-4 -3 -10 -3 -14 0 -3 4 0 7 7 7 7 0 10 -3 7 -7z m59 -6 c8 3 24 3 37 -1 21 -5 23 -12 25 -70 2 -60 1 -64 -18 -59 -14 4 -20 0 -20 -11 0 -9 -5 -16 -11 -16 -6 0 -9 7 -5 15 4 10 -1 15 -14 15 -18 0 -20 7 -19 73 0 39 3 67 5 60 3 -7 12 -9 20 -6z m161 -12 c-9 -7 -13 -16 -9 -20 4 -5 1 -5 -5 -1 -7 4 -13 2 -13 -4 0 -6 -5 -8 -12 -4 -9 6 -9 9 0 12 7 2 9 9 6 14 -4 6 -2 8 3 5 6 -4 14 0 17 9 3 8 11 12 17 8 9 -5 7 -11 -4 -19z m450 3 c-3 -8 -6 -5 -6 6 -1 11 2 17 5 13 3 -3 4 -12 1 -19z m-700 -15 c-4 -3 -7 0 -7 7 0 7 3 10 7 7 3 -4 3 -10 0 -14z m-30 0 c-4 -3 -10 -3 -14 0 -3 4 0 7 7 7 7 0 10 -3 7 -7z m493 -4 c0 -11 -29 -19 -34 -10 -3 5 -3 10 -1 13 8 7 35 5 35 -3z m-540 -29 c0 -19 -11 -26 -23 -14 -8 8 3 34 14 34 5 0 9 -9 9 -20z m787 -12 c-3 -7 -5 -2 -5 12 0 14 2 19 5 13 2 -7 2 -19 0 -25z m-477 -2 c0 -2 -8 -10 -17 -17 -16 -13 -17 -12 -4 4 13 16 21 21 21 13z m221 -13 c13 -16 12 -17 -3 -4 -17 13 -22 21 -14 21 2 0 10 -8 17 -17z m-207 -24 c-3 -5 -10 -7 -15 -3 -5 3 -7 10 -3 15 3 5 10 7 15 3 5 -3 7 -10 3 -15z m185 -10 c-8 -16 -13 -18 -25 -8 -8 6 -14 14 -14 16 0 3 8 -1 17 -8 15 -12 16 -12 11 3 -7 18 0 30 13 22 5 -3 4 -14 -2 -25z m-509 1 c0 -11 -4 -20 -10 -20 -5 0 -10 9 -10 20 0 11 5 20 10 20 6 0 10 -9 10 -20z m90 10 c0 -5 -4 -10 -9 -10 -6 0 -13 5 -16 10 -3 6 1 10 9 10 9 0 16 -4 16 -10z m36 -17 c-10 -10 -19 5 -10 18 6 11 8 11 12 0 2 -7 1 -15 -2 -18z m-76 7 c0 -5 -4 -10 -10 -10 -5 0 -10 5 -10 10 0 6 5 10 10 10 6 0 10 -4 10 -10z m517 -7 c-4 -3 -7 0 -7 7 0 7 3 10 7 7 3 -4 3 -10 0 -14z m30 -5 c-3 -8 -6 -5 -6 6 -1 11 2 17 5 13 3 -3 4 -12 1 -19z m30 0 c-3 -8 -6 -5 -6 6 -1 11 2 17 5 13 3 -3 4 -12 1 -19z m30 0 c-3 -8 -6 -5 -6 6 -1 11 2 17 5 13 3 -3 4 -12 1 -19z m30 0 c-3 -8 -6 -5 -6 6 -1 11 2 17 5 13 3 -3 4 -12 1 -19z m30 0 c-3 -8 -6 -5 -6 6 -1 11 2 17 5 13 3 -3 4 -12 1 -19z m30 0 c-3 -8 -6 -5 -6 6 -1 11 2 17 5 13 3 -3 4 -12 1 -19z m30 5 c-4 -3 -7 0 -7 7 0 7 3 10 7 7 3 -4 3 -10 0 -14z m-443 -5 c-5 -8 -2 -9 9 -5 17 6 31 -5 20 -16 -9 -9 -44 13 -38 24 4 5 8 9 11 9 3 0 2 -5 -2 -12z m140 -19 c-3 -5 -10 -7 -15 -3 -5 3 -7 10 -3 15 3 5 10 7 15 3 5 -3 7 -10 3 -15z m-23 -16 c13 -16 12 -17 -3 -4 -17 13 -22 21 -14 21 2 0 10 -8 17 -17z m-446 -13 c0 -7 -6 -15 -12 -17 -8 -3 -13 4 -13 17 0 13 5 20 13 18 6 -3 12 -11 12 -18z m85 -1 c0 -5 -9 -9 -20 -9 -19 0 -26 11 -14 23 8 8 34 -3 34 -14z m225 11 c3 -5 4 -10 1 -10 -3 0 -8 5 -11 10 -3 6 -4 10 -1 10 3 0 8 -4 11 -10z m85 -1 c0 -12 -19 -21 -30 -14 -6 4 -8 10 -6 14 7 10 36 10 36 0z m355 1 c3 -5 1 -10 -4 -10 -6 0 -11 5 -11 10 0 6 2 10 4 10 3 0 8 -4 11 -10z m65 0 c0 -5 -5 -10 -11 -10 -5 0 -7 5 -4 10 3 6 8 10 11 10 2 0 4 -4 4 -10z m-669 -9 c-12 -8 -51 -4 -51 5 0 2 15 4 33 4 22 0 28 -3 18 -9z m284 -1 c3 -5 4 -10 1 -10 -3 0 -8 5 -11 10 -3 6 -4 10 -1 10 3 0 8 -4 11 -10z m345 -14 c0 -3 -5 -8 -12 -12 -7 -4 -8 -3 -4 4 7 12 16 16 16 8z m-667 -13 c-7 -2 -19 -2 -25 0 -7 3 -2 5 12 5 14 0 19 -2 13 -5z m54 1 c-3 -3 -12 -4 -19 -1 -8 3 -5 6 6 6 11 1 17 -2 13 -5z m73 -4 c0 -5 -2 -10 -4 -10 -3 0 -8 5 -11 10 -3 6 -1 10 4 10 6 0 11 -4 11 -10z m60 0 c0 -5 -2 -10 -4 -10 -3 0 -8 5 -11 10 -3 6 -1 10 4 10 6 0 11 -4 11 -10z m167 3 c-4 -3 -10 -3 -14 0 -3 4 0 7 7 7 7 0 10 -3 7 -7z m60 0 c-4 -3 -10 -3 -14 0 -3 4 0 7 7 7 7 0 10 -3 7 -7z m50 0 c-4 -3 -10 -3 -14 0 -3 4 0 7 7 7 7 0 10 -3 7 -7z m80 1 c-3 -3 -12 -4 -19 -1 -8 3 -5 6 6 6 11 1 17 -2 13 -5z m56 -1 c-7 -2 -19 -2 -25 0 -7 3 -2 5 12 5 14 0 19 -2 13 -5z m104 1 c-3 -3 -12 -4 -19 -1 -8 3 -5 6 6 6 11 1 17 -2 13 -5z m-809 -37 c2 -10 -3 -17 -12 -17 -18 0 -29 16 -21 31 9 14 29 6 33 -14z m292 3 c0 -5 -5 -12 -11 -16 -14 -8 -33 11 -25 25 7 11 36 4 36 -9z m56 9 c10 -17 -13 -36 -27 -22 -12 12 -4 33 11 33 5 0 12 -5 16 -11z m120 0 c10 -17 -13 -36 -27 -22 -12 12 -4 33 11 33 5 0 12 -5 16 -11z m184 -9 c0 -5 -5 -12 -11 -16 -14 -8 -33 11 -25 25 7 11 36 4 36 -9z m120 0 c0 -13 -26 -19 -41 -9 -12 8 -12 10 0 18 15 10 41 4 41 -9z m50 -1 c0 -5 -9 -9 -20 -9 -22 0 -27 16 -7 23 15 5 27 -1 27 -14z m60 0 c0 -5 -9 -9 -20 -9 -22 0 -27 16 -7 23 15 5 27 -1 27 -14z m60 7 c0 -8 -5 -18 -11 -22 -14 -8 -33 11 -25 25 10 16 36 13 36 -3z m-882 -8 c-7 -19 -38 -22 -38 -4 0 10 9 16 21 16 12 0 19 -5 17 -12z m60 0 c-3 -7 -11 -13 -18 -13 -7 0 -15 6 -17 13 -3 7 4 12 17 12 13 0 20 -5 18 -12z m60 0 c-3 -7 -13 -13 -23 -13 -10 0 -20 6 -22 13 -3 7 5 12 22 12 17 0 25 -5 23 -12z m52 -4 c0 -9 -7 -14 -17 -12 -25 5 -28 28 -4 28 12 0 21 -6 21 -16z m178 4 c-3 -7 -11 -13 -18 -13 -7 0 -15 6 -17 13 -3 7 4 12 17 12 13 0 20 -5 18 -12z m120 0 c-3 -7 -11 -13 -18 -13 -7 0 -15 6 -17 13 -3 7 4 12 17 12 13 0 20 -5 18 -12z m60 0 c-3 -7 -11 -13 -18 -13 -7 0 -15 6 -17 13 -3 7 4 12 17 12 13 0 20 -5 18 -12z m122 3 c0 -11 -26 -22 -34 -14 -12 12 -5 23 14 23 11 0 20 -4 20 -9z"/>
<path d="M222 425 c0 -16 2 -22 5 -12 2 9 2 23 0 30 -3 6 -5 -1 -5 -18z"/>
<path d="M1020 370 c0 -5 5 -10 11 -10 5 0 7 5 4 10 -3 6 -8 10 -11 10 -2 0 -4 -4 -4 -10z"/>
</g>
</svg>