<?xml version="1.0" encoding="UTF-8" standalone="no"?>
<!DOCTYPE svg PUBLIC "-//W3C//DTD SVG 20010904//EN" "http://www.w3.org/TR/2001/REC-SVG-20010904/DTD/svg10.dtd">
<svg version="1.0" xmlns="http://www.w3.org/2000/svg" width="40.000000pt" height="40.000000pt" viewBox="0 0 40.000000 40.000000" preserveAspectRatio="xMidYMid meet">
<metadata>
Created by potrace 1.10, written by Peter Selinger 2001-2011
</metadata>
<g transform="translate(0.000000,40.000000) scale(0.050000,-0.050000)" fill="#165603" stroke="none">
<path d="M20 400 l0 -160 380 0 380 0 0 50 c0 36 -11 50 -38 50 -26 0 -40 18 -46 60 -8 54 -4 59 39 51 41 -8 47 -2 41 45 l-6 54 -375 5 -375 6 0 -161z m197 -23 c-4 -26 -16 -45 -27 -43 -26 5 -37 59 -21 101 18 47 56 1 48 -58z"/>
</g>
</svg>