<?xml version="1.0" encoding="UTF-8"?>
<!DOCTYPE svg PUBLIC "-//W3C//DTD SVG 1.1//EN" "http://www.w3.org/Graphics/SVG/1.1/DTD/svg11.dtd">
<!-- Creator: CorelDRAW 2019 (64-Bit) -->
<svg xmlns="http://www.w3.org/2000/svg" xml:space="preserve" width="20px" height="20px" version="1.1" style="shape-rendering:geometricPrecision; text-rendering:geometricPrecision; image-rendering:optimizeQuality; fill-rule:evenodd; clip-rule:evenodd"
viewBox="0 0 1.67 1.67"
 xmlns:xlink="http://www.w3.org/1999/xlink"
 xmlns:xodm="http://www.corel.com/coreldraw/odm/2003">
 <defs>
  <style type="text/css">
   <![CDATA[
    .fil0 {fill:none}
    .fil1 {fill:#FEFEFE}
   ]]>
  </style>
 </defs>
 <g id="图层_x0020_1">
  <metadata id="CorelCorpID_0Corel-Layer"/>
  <rect class="fil0" width="1.67" height="1.67"/>
  <path class="fil1" d="M0.51 0.2l0.65 0c0.07,0 0.12,0.06 0.12,0.13l0 1.01c0,0.07 -0.05,0.13 -0.12,0.13l-0.65 0c-0.06,0 -0.12,-0.06 -0.12,-0.13l0 -1.01c0,-0.07 0.06,-0.13 0.12,-0.13zm0.11 0.14c0.05,0 0.1,0.04 0.1,0.1 0,0.05 -0.05,0.1 -0.1,0.1 -0.06,0 -0.1,-0.05 -0.1,-0.1 0,-0.06 0.04,-0.1 0.1,-0.1zm0.72 -0.01l0.19 0c0.04,0 0.08,0.04 0.08,0.08l0 0.04c0,0.04 -0.04,0.08 -0.08,0.08l-0.19 0 0 -0.2zm0 0.4l0.19 0c0.04,0 0.08,0.04 0.08,0.08l0 0.04c0,0.04 -0.04,0.08 -0.08,0.08l-0.19 0 0 -0.2zm0 0.4l0.19 0c0.04,0 0.08,0.04 0.08,0.08l0 0.04c0,0.04 -0.04,0.08 -0.08,0.08l-0.19 0 0 -0.2zm-1.01 -0.8l-0.19 0c-0.04,0 -0.07,0.04 -0.07,0.08l0 0.04c0,0.04 0.03,0.08 0.07,0.08l0.19 0 0 -0.2zm0 0.4l-0.19 0c-0.04,0 -0.07,0.04 -0.07,0.08l0 0.04c0,0.04 0.03,0.08 0.07,0.08l0.19 0 0 -0.2zm0 0.4l-0.19 0c-0.04,0 -0.07,0.04 -0.07,0.08l0 0.04c0,0.04 0.03,0.08 0.07,0.08l0.19 0 0 -0.2z"/>
 </g>
</svg>
