<?xml version="1.0" encoding="UTF-8"?>
<!DOCTYPE svg PUBLIC "-//W3C//DTD SVG 1.1//EN" "http://www.w3.org/Graphics/SVG/1.1/DTD/svg11.dtd">
<!-- Creator: CorelDRAW 2019 (64-Bit) -->
<svg xmlns="http://www.w3.org/2000/svg" xml:space="preserve" width="20px" height="20px" version="1.1" style="shape-rendering:geometricPrecision; text-rendering:geometricPrecision; image-rendering:optimizeQuality; fill-rule:evenodd; clip-rule:evenodd"
viewBox="0 0 2.05 2.05"
 xmlns:xlink="http://www.w3.org/1999/xlink"
 xmlns:xodm="http://www.corel.com/coreldraw/odm/2003">
 <defs>
  <style type="text/css">
   <![CDATA[
    .fil0 {fill:none}
    .fil1 {fill:#FEFEFE;fill-rule:nonzero}
   ]]>
  </style>
 </defs>
 <g id="图层_x0020_1">
  <metadata id="CorelCorpID_0Corel-Layer"/>
  <rect class="fil0" width="2.05" height="2.05"/>
  <path class="fil1" d="M0.49 1.28c0,0.05 0.04,0.1 0.1,0.1 0.05,0 0.09,-0.05 0.09,-0.1 0,-0.05 -0.04,-0.1 -0.09,-0.1 -0.06,0 -0.1,0.05 -0.1,0.1zm-0.37 -0.98l0 1.38c0,0.15 0.12,0.13 0.12,0.13l1.61 0c0.14,0 0.12,-0.14 0.12,-0.14l0 -1.16c0,-0.14 -0.13,-0.13 -0.13,-0.13 0,0 -0.77,0 -0.73,0 -0.04,0 -0.06,-0.02 -0.06,-0.02 0,0 -0.03,-0.05 -0.09,-0.14 -0.05,-0.08 -0.12,-0.07 -0.12,-0.07l-0.57 0c-0.13,0 -0.15,0.12 -0.15,0.15zm0.37 0.62c0,0.05 0.04,0.09 0.1,0.09 0.05,0 0.09,-0.04 0.09,-0.09 0,-0.06 -0.04,-0.1 -0.09,-0.1 -0.06,0 -0.1,0.04 -0.1,0.1zm1.36 0.68c0,0.05 -0.04,0.1 -0.09,0.1l-1.43 0c-0.06,0 -0.1,-0.05 -0.1,-0.1l0 -0.97c0,-0.05 0.04,-0.09 0.1,-0.09l1.43 0c0.05,0 0.09,0.04 0.09,0.09l0 0.97zm-0.3 -0.23l-0.62 0c-0.05,0 -0.1,-0.04 -0.1,-0.09 0,-0.05 0.05,-0.09 0.1,-0.09l0.62 0c0.05,0 0.09,0.04 0.09,0.09 0,0.05 -0.04,0.09 -0.09,0.09zm0 -0.36l-0.62 0c-0.05,0 -0.1,-0.04 -0.1,-0.09 0,-0.05 0.05,-0.09 0.1,-0.09l0.62 0c0.05,0 0.09,0.04 0.09,0.09 0,0.05 -0.04,0.09 -0.09,0.09z"/>
 </g>
</svg>
