<?xml version="1.0" encoding="utf-8"?>
<!-- Generator: Adobe Illustrator 15.0.0, SVG Export Plug-In . SVG Version: 6.00 Build 0)  -->
<!DOCTYPE svg PUBLIC "-//W3C//DTD SVG 1.1//EN" "http://www.w3.org/Graphics/SVG/1.1/DTD/svg11.dtd">
<svg version="1.1" id="Layer_1" xmlns="http://www.w3.org/2000/svg" xmlns:xlink="http://www.w3.org/1999/xlink" x="0px" y="0px"
	 width="150px" height="31.375px" viewBox="0 52 150 31.375" enable-background="new 0 52 150 31.375" xml:space="preserve">
<path fill="#FEFEFE" d="M105.568,62.251H92.281v-7.639h13.287V62.251z M107.604,62.251v-7.639h13.279v7.639H107.604z
	 M102.133,59.654v-2.312h-6.416v2.312H102.133z M117.314,59.654v-2.312h-6.033v2.312H117.314z M77.359,75.521V54.434h13.279v20.945
	l-3.436,1.605V57.45h-6.408v18.204l-2.748,6.712L75.03,81.82L77.359,75.521z M68.213,54.986V54.05h3.293v0.937 M71.506,71.773
	v10.593h-3.293V71.773 M71.506,66.642l3.132,2.597l-0.687,3.285l-2.445-2.063 M59.592,59.939v7.255H32.748v-7.255H59.592z
	 M57.387,72.104H34.953v10.263H31.66V69.229h29.022v13.137h-4.097v-2.739h0.803L57.387,72.104L57.387,72.104z M55.344,81.42H37.129
	v-7.389h18.215V81.42z M36.175,62.671v1.785h19.99v-1.785H36.175z M40.423,78.689h11.636v-1.929H40.423V78.689z M34.042,82.366
	H1.817v-1.642l18.901-13.531H2.923v-3.159h25.461v1.508L9.081,79.357h25.095L34.042,82.366z M63.93,82.277h3.284V59.931H63.93
	V82.277z M102.313,79.02h-6.711v-2.498h6.711V79.02z M94.396,82.277v0.024h6.371l1.543-0.678l0.232-0.097l2.82-1.225l0,0l0.23-0.099
	V76.52h0.02v-3.285h-7.506l-3.473,1.508l-2.311,0.999v6.533h2.072V82.277z M110.87,79.02h6.711v-2.498h-6.711V79.02z
	 M118.787,82.277v0.024h-6.363l-4.605-1.997l0,0l-0.231-0.1V76.52h-0.017v-3.284h7.505l3.473,1.508l0,0l2.31,0.999v6.532h-2.07
	V82.277z M137.857,82.223v0.152l10.377-0.025v-3.276l-8.109,0.019l-8.38-20.525l2.229-4.534h-3.66l-8.896,18.045l-7.515-3.239h7.38
	v-2.874h-2.337l-1.633-2.187l-3.545,0.544l1.365,1.642h-7.264l0.688-2.187l-3.428-0.41l-0.955,2.597H92.139v2.874h7.256
	l-8.754,3.828v2.713l14.777-6.541h2.462l15.574,6.782l1.024-2.23l-0.045-0.018l5.363-10.878L137.857,82.223z M68.213,71.773h3.293
	V70.46v-3.819v-0.179v-7.889h1.044h4.042v-3.159H72.55h-1.044v-0.429h-3.293v0.349v0.08h-0.508h-20.08V53.95H44.35v1.464H23.467
	V54.05H20.03v1.365h-8.2V54.05H8.536v1.365H1.139v3.159h7.397v2.168h3.294v-2.168h8.2v2.168h3.437v-2.168h44.238h0.508V71.773
	L68.213,71.773z"/>
</svg>
